<svg width="1600" height="900" viewBox="0 0 1600 900" fill="none" xmlns="http://www.w3.org/2000/svg">
<g clip-path="url(#clip0_1243_738)">
<path d="M888.953 285.963C888.953 285.963 879.632 282.634 873.64 295.949C867.648 309.264 858.327 323.911 858.327 323.911L863.652 325.243C863.652 325.243 864.983 315.922 868.313 314.593L866.982 326.575C866.982 326.575 906.928 340.556 924.903 325.244L924.237 320.584C924.237 320.584 926.903 321.25 926.903 325.243L928.9 323.246C928.9 323.246 926.903 319.252 920.911 313.925C916.978 310.429 915.626 303.778 915.162 299.62C914.814 296.148 913.425 292.862 911.177 290.194C907.193 285.579 899.938 280.675 888.953 285.963Z" fill="#2F2E41"/>
<path d="M914.378 431.794H588.25V651.815H914.378V431.794Z" fill="white"/>
<path d="M915.188 653.314H586.812V431.044H915.188V653.314ZM589.061 651.064H912.939V433.294H589.061V651.064Z" fill="#CCCCCC"/>
<path d="M616 633.452H887.007V449.794H616V633.452Z" fill="#E5E5E5"/>
<path d="M692.982 574.239C708.692 574.239 721.428 561.503 721.428 545.793C721.428 530.082 708.692 517.347 692.982 517.347C677.272 517.347 664.536 530.082 664.536 545.793C664.536 561.503 677.272 574.239 692.982 574.239Z" fill="#A0A0A0"/>
<path d="M782.184 633.455H642.638C642.462 633.457 642.287 633.444 642.113 633.414L708.113 519.095C708.516 518.383 709.101 517.791 709.807 517.379C710.514 516.966 711.317 516.749 712.135 516.749C712.953 516.749 713.757 516.966 714.463 517.379C715.17 517.791 715.754 518.383 716.157 519.095L760.454 595.805L762.575 599.476L782.184 633.455Z" fill="#B4B4B4"/>
<path opacity="0.2" d="M782.185 633.452H734.54L757.928 599.477L759.613 597.03L760.455 595.806L762.576 599.477L782.185 633.452Z" fill="#757575"/>
<path d="M859.883 633.452H739.187L762.575 599.477L764.258 597.03L794.735 552.757C795.274 552.081 795.949 551.525 796.717 551.127C797.484 550.728 798.327 550.496 799.191 550.444C800.054 550.392 800.918 550.523 801.728 550.827C802.538 551.131 803.274 551.602 803.89 552.21C804.048 552.383 804.194 552.566 804.328 552.757L859.883 633.452Z" fill="#B4B4B4"/>
<path d="M919.284 435.829C919.988 434.884 920.476 433.797 920.714 432.643C920.952 431.49 920.935 430.298 920.663 429.152C920.39 428.006 919.87 426.933 919.139 426.01C918.407 425.087 917.482 424.335 916.429 423.808L895.764 353.395L880.028 361.101L905.289 427.892C904.519 429.721 904.448 431.768 905.087 433.646C905.727 435.524 907.034 437.102 908.759 438.08C910.485 439.059 912.51 439.37 914.45 438.955C916.39 438.54 918.11 437.427 919.284 435.828V435.829Z" fill="#A0616A"/>
<path d="M900.446 365.154L882.834 369.922C882.333 370.057 881.808 370.083 881.296 369.998C880.784 369.912 880.296 369.718 879.866 369.427C879.436 369.136 879.074 368.756 878.804 368.312C878.534 367.869 878.363 367.373 878.302 366.857L876.174 348.792C875.488 346.222 875.851 343.485 877.182 341.182C878.514 338.88 880.705 337.2 883.275 336.513C885.844 335.825 888.581 336.186 890.885 337.516C893.188 338.846 894.869 341.036 895.558 343.606L902.814 360.223C903.021 360.698 903.124 361.213 903.115 361.732C903.105 362.251 902.984 362.762 902.76 363.23C902.535 363.699 902.212 364.113 901.813 364.445C901.414 364.777 900.948 365.019 900.447 365.155L900.446 365.154Z" fill="#6C63FF"/>
<path d="M923.887 502.876H933.082L937.457 479.026H923.882L923.887 502.876Z" fill="#A0616A"/>
<path d="M921.542 499.874H939.654C941.169 499.874 942.67 500.172 944.07 500.752C945.47 501.332 946.742 502.182 947.814 503.253C948.885 504.325 949.735 505.597 950.315 506.997C950.895 508.397 951.194 509.897 951.194 511.413V511.789H921.543L921.542 499.874Z" fill="#2F2E41"/>
<path d="M934.56 490.088C934.453 490.088 934.346 490.083 934.238 490.072L921.513 489.146C920.998 489.098 920.501 488.933 920.061 488.663C919.62 488.393 919.248 488.025 918.972 487.588C918.696 487.151 918.524 486.657 918.469 486.143C918.414 485.629 918.478 485.11 918.656 484.624L935.686 446.363C935.807 446.022 935.857 445.659 935.831 445.297C935.805 444.936 935.705 444.584 935.536 444.263C935.369 443.938 935.134 443.653 934.848 443.425C934.563 443.198 934.232 443.034 933.878 442.943C925.87 440.85 905.324 435.276 887.538 428.755C879.918 425.96 875.119 421.923 873.274 416.755C870.842 409.939 874.44 403.724 874.594 403.463L874.715 403.259L891.451 404.78L909.594 406.324L949.354 427.645C952.686 429.446 955.216 432.437 956.442 436.02C957.668 439.604 957.499 443.518 955.968 446.983L937.638 488.089C937.372 488.683 936.941 489.188 936.394 489.543C935.848 489.898 935.212 490.087 934.56 490.088Z" fill="#2F2E41"/>
<path d="M894.363 329.083C904.536 329.083 912.783 320.836 912.783 310.663C912.783 300.489 904.536 292.242 894.363 292.242C884.189 292.242 875.942 300.489 875.942 310.663C875.942 320.836 884.189 329.083 894.363 329.083Z" fill="#A0616A"/>
<path d="M918.637 502.126H927.832L932.207 478.276H918.632L918.637 502.126Z" fill="#A0616A"/>
<path d="M916.292 499.124H934.404C935.919 499.124 937.42 499.422 938.82 500.002C940.22 500.582 941.492 501.432 942.564 502.503C943.635 503.575 944.485 504.847 945.065 506.247C945.645 507.647 945.944 509.147 945.944 510.663V511.039H916.293L916.292 499.124Z" fill="#2F2E41"/>
<path d="M929.31 492.338C929.203 492.338 929.096 492.333 928.988 492.322L916.263 491.396C915.748 491.348 915.251 491.183 914.811 490.913C914.37 490.643 913.998 490.275 913.722 489.838C913.446 489.401 913.274 488.907 913.219 488.393C913.164 487.879 913.228 487.36 913.406 486.874L930.436 448.613C930.557 448.272 930.607 447.909 930.581 447.547C930.555 447.186 930.455 446.834 930.286 446.513C930.118 446.188 929.884 445.903 929.598 445.676C929.313 445.448 928.982 445.284 928.628 445.193C920.62 443.1 900.074 437.526 882.288 431.005C874.668 428.21 869.869 424.173 868.024 419.005C865.592 412.189 869.19 405.974 869.344 405.713L869.465 405.509L886.201 407.03L904.344 408.574L944.104 429.895C947.436 431.696 949.966 434.687 951.192 438.27C952.418 441.854 952.249 445.768 950.718 449.233L932.388 490.339C932.122 490.933 931.691 491.438 931.144 491.793C930.598 492.148 929.962 492.337 929.31 492.338Z" fill="#2F2E41"/>
<path d="M900.044 339.529L880.544 332.779C880.544 332.779 868.302 342.183 874.183 365.515C877.253 377.555 876.359 390.264 871.633 401.755C871.064 403.177 870.408 404.562 869.669 405.904C869.669 405.904 891.419 432.154 911.669 412.654L903.794 374.779C903.794 374.779 916.169 349.654 900.044 339.529Z" fill="#CBCBCB"/>
<path d="M947.344 432.454C947.789 431.363 947.99 430.188 947.932 429.012C947.875 427.835 947.56 426.686 947.01 425.644C946.46 424.603 945.688 423.694 944.749 422.983C943.81 422.272 942.727 421.775 941.575 421.528L903.974 358.51L890.663 369.904L931.81 428.266C931.521 430.229 931.963 432.23 933.051 433.889C934.14 435.548 935.799 436.749 937.715 437.266C939.631 437.782 941.669 437.577 943.444 436.691C945.219 435.804 946.606 434.296 947.344 432.454V432.454Z" fill="#A0616A"/>
<path d="M911.446 368.728L895.584 377.744C895.132 378 894.631 378.157 894.114 378.202C893.597 378.247 893.076 378.181 892.587 378.007C892.098 377.832 891.652 377.555 891.28 377.193C890.908 376.831 890.618 376.393 890.43 375.91L883.854 358.948C882.546 356.63 882.212 353.888 882.925 351.325C883.639 348.761 885.341 346.586 887.659 345.278C889.976 343.969 892.718 343.635 895.282 344.349C897.845 345.063 900.021 346.765 901.329 349.083L912.504 363.361C912.824 363.769 913.052 364.242 913.172 364.747C913.293 365.252 913.303 365.777 913.203 366.287C913.102 366.796 912.893 367.278 912.589 367.699C912.286 368.12 911.895 368.471 911.444 368.728H911.446Z" fill="#CBCBCB"/>
<path d="M873.362 314.116C873.362 314.116 881.649 304.468 886.31 303.137C889.105 302.342 891.804 301.245 894.362 299.866C894.362 299.866 903.618 308.464 910.942 309.129C918.266 309.794 911.608 293.154 911.608 293.154L898.293 289.825L885.643 291.157L875.657 297.814L873.362 314.116Z" fill="#2F2E41"/>
<path d="M388 432.91C388 382.536 428.836 263 479.21 263C529.585 263 570.421 382.536 570.421 432.91C570.352 457.055 560.712 480.187 543.614 497.236C526.516 514.285 503.356 523.858 479.211 523.858C455.066 523.858 431.906 514.285 414.808 497.236C397.71 480.187 388.069 457.055 388 432.91Z" fill="#E5E5E5"/>
<path d="M479.21 654.814C479.012 654.814 478.821 654.735 478.68 654.595C478.539 654.454 478.46 654.263 478.46 654.064V339.601C478.46 339.402 478.539 339.212 478.68 339.071C478.821 338.93 479.012 338.851 479.21 338.851C479.409 338.851 479.6 338.93 479.741 339.071C479.881 339.212 479.96 339.402 479.96 339.601V654.064C479.96 654.263 479.881 654.454 479.741 654.595C479.6 654.735 479.409 654.814 479.21 654.814Z" fill="#CCCCCC"/>
<path d="M479.211 400.31C479.012 400.31 478.821 400.231 478.68 400.09L442.579 363.99C442.443 363.848 442.367 363.659 442.369 363.462C442.37 363.266 442.449 363.077 442.588 362.938C442.727 362.799 442.915 362.72 443.112 362.719C443.309 362.717 443.498 362.793 443.64 362.929L479.741 399.03C479.846 399.135 479.917 399.268 479.946 399.414C479.975 399.559 479.96 399.71 479.903 399.847C479.847 399.984 479.751 400.101 479.627 400.184C479.504 400.266 479.359 400.31 479.211 400.31Z" fill="#CCCCCC"/>
<path d="M479.21 462.807C479.062 462.807 478.917 462.763 478.794 462.681C478.67 462.599 478.574 462.481 478.518 462.344C478.461 462.207 478.446 462.057 478.475 461.911C478.504 461.766 478.575 461.632 478.68 461.527L539.138 401.07C539.206 400.999 539.288 400.942 539.378 400.903C539.468 400.863 539.566 400.842 539.664 400.84C539.763 400.838 539.861 400.856 539.952 400.892C540.044 400.928 540.128 400.982 540.199 401.051C540.27 401.119 540.326 401.201 540.366 401.291C540.405 401.382 540.426 401.479 540.428 401.578C540.429 401.676 540.411 401.774 540.375 401.866C540.339 401.957 540.285 402.041 540.216 402.112L540.198 402.13L479.741 462.589C479.6 462.73 479.409 462.809 479.21 462.809V462.807Z" fill="#CCCCCC"/>
<path d="M995.422 654.813H438.172C437.973 654.813 437.782 654.734 437.642 654.594C437.501 654.453 437.422 654.262 437.422 654.063C437.422 653.865 437.501 653.674 437.642 653.533C437.782 653.393 437.973 653.313 438.172 653.313H995.422C995.621 653.313 995.812 653.393 995.952 653.533C996.093 653.674 996.172 653.865 996.172 654.063C996.172 654.262 996.093 654.453 995.952 654.594C995.812 654.734 995.621 654.813 995.422 654.813Z" fill="#E6E6E6"/>
<path d="M504.906 597.223C504.906 584.318 515.374 553.697 528.287 553.697C541.2 553.697 551.668 584.316 551.668 597.223C551.668 603.424 549.205 609.371 544.82 613.755C540.435 618.14 534.488 620.603 528.287 620.603C522.086 620.603 516.139 618.14 511.754 613.755C507.37 609.371 504.906 603.424 504.906 597.223Z" fill="#B4B4B4"/>
<path d="M528.287 654.064C528.236 654.064 528.187 654.043 528.151 654.007C528.115 653.971 528.095 653.922 528.095 653.872V573.316C528.095 573.291 528.1 573.266 528.109 573.243C528.119 573.219 528.133 573.198 528.151 573.18C528.169 573.162 528.19 573.148 528.213 573.139C528.237 573.129 528.262 573.124 528.287 573.124C528.312 573.124 528.337 573.129 528.361 573.139C528.384 573.148 528.405 573.162 528.423 573.18C528.441 573.198 528.455 573.219 528.465 573.243C528.474 573.266 528.479 573.291 528.479 573.316V653.872C528.479 653.922 528.459 653.971 528.423 654.007C528.387 654.043 528.338 654.064 528.287 654.064Z" fill="#E6E6E6"/>
<path d="M528.287 588.867C528.262 588.868 528.237 588.863 528.213 588.853C528.19 588.843 528.169 588.829 528.151 588.811L518.897 579.564C518.861 579.528 518.841 579.479 518.841 579.428C518.842 579.377 518.862 579.328 518.898 579.293C518.934 579.257 518.983 579.237 519.033 579.236C519.084 579.236 519.133 579.256 519.169 579.292L528.423 588.54C528.45 588.567 528.468 588.601 528.476 588.638C528.483 588.675 528.479 588.714 528.465 588.749C528.45 588.784 528.426 588.814 528.394 588.835C528.363 588.856 528.325 588.867 528.287 588.867Z" fill="#E6E6E6"/>
<path d="M528.287 604.879C528.249 604.879 528.212 604.867 528.18 604.846C528.148 604.825 528.124 604.795 528.109 604.76C528.095 604.725 528.091 604.686 528.098 604.649C528.106 604.612 528.124 604.578 528.151 604.551L543.649 589.063C543.685 589.027 543.734 589.007 543.785 589.007C543.836 589.007 543.885 589.027 543.921 589.063C543.957 589.099 543.977 589.148 543.977 589.199C543.977 589.25 543.957 589.299 543.921 589.335L528.422 604.822C528.405 604.84 528.384 604.854 528.36 604.864C528.337 604.874 528.312 604.879 528.287 604.879Z" fill="#E6E6E6"/>
</g>
<defs>
<clipPath id="clip0_1243_738">
<rect width="608.172" height="391.814" fill="white" transform="translate(388 263)"/>
</clipPath>
</defs>
</svg>
